<svg width="540" height="333" viewBox="0 0 540 333" fill="none" xmlns="http://www.w3.org/2000/svg">
<g clip-path="url(#clip0_29865_11320)">
<path d="M117.837 289.049C107.816 256.832 142.032 260.382 131.742 237.46C126.549 227.389 67.5575 232.528 56.5203 210.795C45.489 189.068 97.6301 171.128 111.796 150.645C125.956 130.157 122.339 84.325 135.179 62.769C148.026 41.2184 173.562 3.30214 233.399 26.0003C270.797 40.1866 303.345 115.318 332.681 110.052C400.471 97.8826 471.036 124.226 481.665 165.713C492.294 207.2 482.246 228.168 463.824 249.598C432.956 285.501 387.931 297.483 357.211 297.483C313.437 297.482 282.801 245.826 237.523 292.522C216.664 317.324 190.84 324.765 161.043 319.309C133.073 314.187 117.837 289.049 117.837 289.049Z" fill="white"/>
<path d="M117.837 289.049C107.816 256.832 142.032 260.382 131.742 237.46C126.549 227.389 67.5575 232.528 56.5203 210.795C45.489 189.068 97.6301 171.128 111.796 150.645C125.956 130.157 122.339 84.325 135.179 62.769C148.026 41.2184 173.562 3.30214 233.399 26.0003C270.797 40.1866 303.345 115.318 332.681 110.052C400.471 97.8826 471.036 124.226 481.665 165.713C492.294 207.2 482.246 228.168 463.824 249.598C432.956 285.501 387.931 297.483 357.211 297.483C313.437 297.482 282.801 245.826 237.523 292.522C216.664 317.324 190.84 324.765 161.043 319.309C133.073 314.187 117.837 289.049 117.837 289.049Z" fill="url(#paint0_linear_29865_11320)"/>
<path d="M429.269 241.371C434.424 250.298 454.277 291.219 455.279 295.992C456.281 300.766 439.673 330.672 409.328 352.348L401.395 348.245C401.395 348.245 428.173 305.495 431.404 300.801C432.788 298.783 408.396 275.154 400.973 260.319L429.269 241.371Z" fill="#F0C298"/>
<path d="M419.04 284.53C417.933 280.06 415.283 262.654 428.995 248.703L407.332 255.929L403.996 264.302L410.813 274.574L419.04 284.53Z" fill="#E1B48B"/>
<path d="M254.019 98.1039C253.64 84.4032 260.295 85.741 265.624 91.0585C270.952 96.376 268.667 69.1753 270.573 62.141C272.48 55.1067 276.85 39.4997 287.518 39.4997C293.204 39.4997 292.256 47.7826 297.105 47.4258C301.955 47.0691 306.57 36.8911 311.185 29.9126C315.8 22.934 320.772 16.6578 327.048 17.0145C333.325 17.3712 337.561 26.1892 340.861 33.3238C344.172 40.4584 351.507 42.9444 356.167 38.2846C360.815 33.6359 361.005 27.6273 368.039 27.761C375.073 27.8948 381.338 41.4171 384.616 50.0456C387.893 58.674 388.328 67.0126 395.485 69.3425C398.272 70.2455 398.406 65.9981 405.239 66.065C412.062 66.1319 413.801 80.7021 413.89 91.1477C413.979 101.593 401.917 107.914 401.917 107.914L380.926 85.3954L373.122 69.6769L351.886 77.9598L284.085 93.4441L267.285 112.641L254.019 98.1039Z" fill="#E55A15"/>
<path d="M369.487 191.433C370.747 198.523 369.488 211.529 369.488 211.529L343.126 240.514L315.256 221.005L321.016 189.137L369.487 191.433Z" fill="#F0C298"/>
<path d="M291.096 160.843C278.666 154.567 252.67 129.607 254.018 98.1145L254.297 95.1269C254.297 95.1269 263.093 102.484 267.017 102.741C270.941 102.997 279.19 101.827 279.057 79.1855C278.923 56.5442 285.333 55.8865 287.562 56.2878C289.792 56.678 295.789 68.8626 299.212 68.3275C306.982 67.1012 311.363 36.8125 324.997 36.8125C336.401 36.8125 341.852 62.4191 352.666 63.7568C361.361 64.827 359.789 46.7006 369.644 44.1478C376.422 42.3976 381.126 69.576 384.471 79.152C387.815 88.7169 392.352 91.3478 395.295 90.9241C400.245 90.1995 402.274 83.2767 405.964 83.2767C409.665 83.2767 413.042 89.107 413.89 92.4291C414.737 95.7512 415.473 122.417 400.379 134.378L389.855 138.76L380.647 158.012L363.412 166.529L341.317 170.732L326.257 173.574L291.096 160.843Z" fill="#B15928"/>
<path d="M309.981 175.327C311.185 178.448 299.959 181.882 293.047 169.53C286.002 156.933 294.452 152.407 298.777 152.986L306.324 154.001" fill="#F0C298"/>
<path d="M372.231 75.2969C364.428 89.5661 356.557 92.0855 316.291 89.5661C298.02 88.429 286.226 105.162 286.226 105.162C286.226 105.162 292.524 132.998 297.775 139.832C303.025 146.665 300.406 162.027 306.314 172.662C312.222 183.297 325.02 202.717 350.147 200.81C373.379 199.049 383.178 170.176 383.647 164.257C383.647 164.257 388.306 168.716 395.586 163.142C402.709 157.679 406.321 145.562 402.62 136.487C398.317 125.953 385.776 136.487 385.776 136.487C385.776 136.487 383.424 99.3539 372.231 75.2969Z" fill="#F0C298"/>
<path d="M347.586 203.727C362.636 203.17 369.324 191.465 369.324 191.465C369.324 191.465 366.537 209.301 347.586 210.416C328.635 211.531 320.831 191.465 320.831 191.465C320.831 191.465 332.536 204.285 347.586 203.727Z" fill="#E1B48B"/>
<path d="M335.22 121.769C338.586 121.769 341.329 119.774 342.789 117.299L341.83 116.73C340.036 119.774 336 122.003 331.374 119.685L330.872 120.677C332.388 121.435 333.86 121.769 335.22 121.769Z" fill="#E1B48B"/>
<path d="M319.402 130.097C322.981 126.764 318.02 121.558 312.156 121.19C306.292 120.822 298.712 125.181 301.019 128.926C302.034 130.576 306.682 128.659 309.514 128.068C312.357 127.488 316.905 132.427 319.402 130.097Z" fill="#8D3C19"/>
<path d="M355.153 121.625C349.356 120.822 354.038 111.369 361.106 110.522C368.453 109.641 374.394 113.019 373.647 115.672C372.901 118.325 366.446 116.118 362.756 118.113C359.401 119.919 358.33 122.06 355.153 121.625Z" fill="#8D3C19"/>
<path d="M290.175 120.977C290.175 120.977 293.84 98.5285 310.606 98.0715C333.158 97.4472 343.762 98.4922 357.619 88.3477C357.619 88.3477 352.224 90.6101 338.11 90.3203C323.997 90.0193 315.299 89.0272 310.606 89.7629C305.913 90.4987 295.581 93.3302 286.273 104.812L290.175 120.977Z" fill="#E1B48B"/>
<path d="M335.621 180.498C336.056 180.498 336.535 180.453 337.048 180.342C338.787 179.963 339.422 178.525 339.98 177.254C340.481 176.105 340.927 175.113 342.064 174.812C342.822 174.623 343.792 174.89 344.818 175.169C346.523 175.648 348.641 176.228 350.158 174.389C352.855 171.111 356.077 172.75 359.154 174.712C359.678 175.046 360.09 175.314 360.447 175.47C363.256 176.73 365.062 173.642 365.742 172.482C365.976 172.081 365.843 171.568 365.441 171.334C365.04 171.1 364.527 171.234 364.293 171.635C362.777 174.233 361.874 174.277 361.127 173.943C360.893 173.842 360.503 173.586 360.057 173.307C357.682 171.791 352.722 168.636 348.864 173.341C348.084 174.3 346.98 174.054 345.264 173.575C344.071 173.24 342.833 172.895 341.652 173.207C339.723 173.709 339.021 175.303 338.452 176.596C337.928 177.789 337.56 178.536 336.691 178.725C334.495 179.193 333.257 178.101 333.213 178.056C332.878 177.744 332.343 177.767 332.031 178.09C331.719 178.424 331.73 178.948 332.053 179.26C332.12 179.294 333.391 180.498 335.621 180.498Z" fill="#C07E53"/>
<path d="M355.129 178.633C352.866 181.609 349.087 183.739 343.847 180.94L355.129 178.633Z" fill="#F0C298"/>
<path d="M348.53 183.07C351.295 183.07 353.814 181.744 355.787 179.135C356.066 178.767 355.999 178.243 355.631 177.965C355.263 177.686 354.739 177.753 354.461 178.121C352.599 180.573 349.31 182.914 344.238 180.194C343.826 179.971 343.324 180.127 343.112 180.54C342.889 180.941 343.045 181.454 343.458 181.666C345.186 182.613 346.903 183.07 348.53 183.07Z" fill="#C07E53"/>
<path d="M341.986 147.824C342.343 154.212 339.467 159.619 339.099 161.112C338.742 162.606 340.013 166.33 343.837 166.107C347.493 165.906 349.868 163.476 350.637 161.313" fill="#F0C298"/>
<path d="M343.525 166.953C343.648 166.953 343.77 166.953 343.893 166.942C347.861 166.719 350.537 164.099 351.429 161.602C351.585 161.167 351.362 160.688 350.927 160.532C350.492 160.376 350.013 160.599 349.857 161.034C349.155 163.007 347.003 165.091 343.792 165.27C342.533 165.348 341.529 164.924 340.794 164.044C339.98 163.063 339.779 161.825 339.913 161.301C339.98 161.034 340.181 160.51 340.415 159.908C341.362 157.477 343.112 152.94 342.823 147.768C342.8 147.311 342.366 146.932 341.942 146.976C341.485 146.999 341.128 147.4 341.15 147.857C341.418 152.673 339.757 156.987 338.854 159.306C338.575 160.019 338.375 160.532 338.285 160.911C338.029 161.97 338.375 163.754 339.512 165.114C340.225 165.972 341.485 166.953 343.525 166.953Z" fill="#C07E53"/>
<path d="M396.455 138.125C392.754 140.399 388.105 141.926 387.448 156.006L396.455 138.125Z" fill="#F0C298"/>
<path d="M387.448 156.843C387.894 156.843 388.261 156.497 388.284 156.051C388.863 143.555 392.631 141.336 395.965 139.396C396.277 139.207 396.589 139.029 396.89 138.85C397.28 138.605 397.403 138.092 397.169 137.702C396.934 137.312 396.41 137.189 396.02 137.423C395.73 137.602 395.429 137.78 395.128 137.958C391.427 140.121 387.247 142.574 386.623 155.984C386.6 156.441 386.957 156.843 387.414 156.854C387.425 156.843 387.436 156.843 387.448 156.843Z" fill="#C07E53"/>
<path d="M392.755 152.673C393.914 148.972 391.707 145.806 388.63 147.824L392.755 152.673Z" fill="#F0C298"/>
<path d="M392.755 153.511C393.112 153.511 393.447 153.276 393.558 152.92C394.316 150.489 393.826 148.104 392.321 146.967C391.161 146.097 389.656 146.153 388.185 147.112C387.795 147.368 387.694 147.881 387.951 148.271C388.207 148.661 388.72 148.762 389.11 148.505C389.723 148.104 390.593 147.747 391.329 148.293C392.109 148.884 392.577 150.478 391.975 152.407C391.841 152.853 392.087 153.321 392.521 153.455C392.588 153.499 392.666 153.511 392.755 153.511Z" fill="#C07E53"/>
<path d="M295.155 161.066C299.859 161.066 304.697 164.121 302.412 171.635L295.155 161.066Z" fill="#F0C298"/>
<path d="M302.412 172.471C302.768 172.471 303.103 172.237 303.214 171.88C304.53 167.577 303.504 164.924 302.423 163.452C300.907 161.401 298.265 160.23 295.165 160.23C294.708 160.23 294.329 160.609 294.329 161.067C294.329 161.524 294.708 161.903 295.165 161.903C297.729 161.903 299.892 162.828 301.085 164.444C302.311 166.105 302.501 168.502 301.62 171.389C301.486 171.835 301.732 172.304 302.177 172.437C302.256 172.46 302.334 172.471 302.412 172.471Z" fill="#C07E53"/>
<path d="M284.943 247.732C279.47 261.556 248.189 304.698 238.156 300.74C228.134 296.794 230.107 287.976 233.295 275.368C236.484 262.76 244.666 242.771 248.367 239.427L271.779 217.406" fill="#F0C298"/>
<path d="M379.078 317.679L392.557 321.828L392.229 322.894L378.75 318.745L379.078 317.679Z" fill="#004EE4"/>
<path d="M378.197 320.11L391.938 324.539L391.595 325.6L377.855 321.171L378.197 320.11Z" fill="#004EE4"/>
<path d="M342.568 239.224C328.076 238.284 319.158 209.299 320.56 194.944C316.268 186.896 286.271 187.304 267.32 219.634L263.977 248.874C253.322 246.936 250.353 245.389 245.025 241.628C245.025 241.628 222.172 289.006 229.418 299.039C236.664 309.073 250.042 299.039 258.403 290.121C266.764 281.203 297.45 239.224 297.45 239.224C297.45 239.224 279.025 292.652 275.124 368.458H399.275V345.039L393.291 258.651L397.75 269.799L455.162 296.252C445.129 270.612 441.785 266.711 435.095 251.486C435.095 251.486 414.472 196.224 370.368 200.964C370.379 200.953 354.831 238.284 342.568 239.224Z" fill="#90D1DB"/>
<path d="M345.914 368.459C377.128 347.835 393.293 258.652 393.293 258.652C393.293 258.652 398.405 349.411 398.439 351.83C398.472 354.249 399.424 368.459 399.424 368.459H345.914Z" fill="#56B5C5"/>
<path d="M419.528 227.439C409.06 219.792 383.772 202.2 373.271 202.356C362.759 202.512 381.142 195.79 398.912 206.816C414.472 215.734 420.932 226.971 419.528 227.439Z" fill="#BFE5EA"/>
<path d="M320.433 198.027C309.297 195.218 289.565 199.275 279.108 209.275C268.652 219.275 277.949 195.652 298.06 191.16C318.159 186.656 323.923 197.871 320.433 198.027Z" fill="#BFE5EA"/>
<path d="M403.497 365.68C403.463 365.593 403.46 365.506 403.487 365.422L404.047 363.621L433.46 269.475C433.743 268.569 437.135 269.29 439.311 270.281C440.45 270.799 441.255 271.391 441.106 271.863L440.541 273.665L411.693 366.01L411.133 367.811C410.728 369.105 403.958 367.075 403.497 365.68Z" fill="#593763"/>
<path d="M403.575 365.709C403.542 365.621 403.539 365.534 403.565 365.45L404.126 363.65L433.539 269.503C433.821 268.597 437.214 269.318 439.39 270.309C439.423 270.397 439.426 270.484 439.4 270.567L438.837 272.371L409.987 364.714L409.426 366.515C409.144 367.42 405.751 366.7 403.575 365.709Z" fill="#8B6297"/>
<path d="M433.514 274.552L438.329 276.057L438.664 274.985L433.849 273.48L433.514 274.552Z" fill="#A68AAE"/>
<path d="M432.682 277.228L437.497 278.733L437.832 277.66L433.017 276.156L432.682 277.228Z" fill="#A68AAE"/>
<path d="M431.844 279.904L436.659 281.408L436.994 280.336L432.179 278.832L431.844 279.904Z" fill="#A68AAE"/>
<path d="M408.673 354.073L413.489 355.577L436.079 283.264L431.264 281.76L408.673 354.073Z" fill="#A68AAE"/>
<path d="M434.812 265.28L403.356 365.844C402.866 367.412 396.387 366.087 391.374 364.199L391.371 364.198C387.943 362.903 385.201 361.344 385.537 360.27L416.993 259.706C417.328 258.635 420.468 258.92 424.023 259.809L424.026 259.811C429.222 261.115 435.302 263.714 434.812 265.28Z" fill="#DD9196"/>
<path d="M429.864 263.734L398.408 364.298C398.072 365.372 394.93 365.09 391.376 364.201L391.373 364.2C387.945 362.905 385.203 361.346 385.539 360.272L416.995 259.708C417.33 258.637 420.47 258.922 424.025 259.812L424.028 259.813C427.456 261.107 430.199 262.663 429.864 263.734Z" fill="#E8ABBC"/>
<path d="M424.186 267.986C422.421 267.434 417.834 266.11 414.94 266.279L414.514 267.639C415.805 267.481 418.834 267.735 423.781 269.282C428.734 270.832 431.364 272.352 432.331 273.216L432.758 271.852C430.475 270.064 425.952 268.539 424.186 267.986ZM413.589 270.597L413.162 271.961C414.454 271.799 417.483 272.053 422.43 273.601C427.384 275.15 430.013 276.67 430.98 277.534L431.406 276.174C429.12 274.385 424.601 272.857 422.835 272.305C421.066 271.752 416.482 270.432 413.589 270.597Z" fill="#CB5031"/>
<path d="M424.228 289.634L422.143 288.981C422.543 287.141 421.48 285.267 419.648 284.694C417.816 284.121 415.875 285.055 415.155 286.796L413.069 286.143L395.575 342.071L397.661 342.723C397.261 344.564 398.324 346.438 400.156 347.011C401.988 347.584 403.929 346.65 404.649 344.909L406.734 345.562L424.228 289.634Z" fill="#CB5031"/>
<path d="M412.801 273.116L385.84 359.31C385.132 361.573 376.024 359.775 368.677 357.096C363.284 355.131 358.836 352.688 359.356 351.026L386.317 264.832C386.836 263.174 391.884 263.698 397.435 265.156C404.999 267.144 413.509 270.854 412.801 273.116Z" fill="#F2CB11"/>
<path d="M406.761 271.225L379.8 357.419C379.28 359.081 374.233 358.554 368.678 357.095C363.286 355.129 358.838 352.687 359.358 351.025L386.319 264.831C386.838 263.173 391.886 263.697 397.437 265.154C402.833 267.121 407.28 269.567 406.761 271.225Z" fill="#F9E251"/>
<path d="M382.432 348.477L368.33 344.066L389.725 275.666L403.827 280.077L382.432 348.477Z" fill="#D58F38"/>
<path d="M397.008 277.136C394.384 276.316 387.567 274.347 383.265 274.598L382.632 276.62C384.551 276.385 389.053 276.763 396.406 279.063C403.768 281.365 407.677 283.624 409.114 284.909L409.748 282.882C406.356 280.224 399.633 277.957 397.008 277.136Z" fill="#D58F38"/>
<path d="M442.274 274.316C442.274 274.316 444.008 276.917 454.791 295.2C456.597 306.448 431.632 347.444 389.037 362.713C389.037 362.713 380.378 367.697 373.377 367.697C366.771 367.697 360.32 358.955 360.32 358.955C360.32 358.955 357.378 352.622 358.385 346.022C358.668 344.169 359.262 342.295 360.32 340.534C361.23 339.018 363.049 343.343 363.049 347.444C363.049 351.545 368.766 356.751 374.34 356.186C373.49 356.836 367.076 351.82 367.651 348.947C367.196 347.583 372.234 347.956 376.569 352.291C378.588 353.282 380.762 355.486 382.047 356.186C382.047 356.186 396.025 348.037 400.943 343.027C412.546 331.212 429.766 302.334 432.245 296.611" fill="#F0C298"/>
<path d="M384.93 353.106C406.957 338.106 425.317 312.138 442.341 271.727C448.473 276.186 455.719 292.35 455.719 297.367C447.978 331.418 417.259 351.434 388.274 364.254L384.93 353.106Z" fill="#90D1DB"/>
<path d="M262.745 246.799L246.674 241.906L249.079 238.393C249.079 238.393 247.27 227.965 249.215 222.385L256.55 213.998" fill="#F0C298"/>
<path d="M262.115 246.493C263.97 241.553 277.07 238.638 279.2 234.074C281.331 229.51 278.844 225.545 280.721 221.46C282.597 217.376 298.853 203.549 295.936 198.928C293.019 194.308 278.269 216.823 273.592 215.171C269.785 213.822 285.283 193.149 280.386 189.55C275.49 185.951 268.062 210.248 266.006 213.002C266.006 213.002 264.313 204.035 258.842 205.641C254.818 206.829 255.224 212.466 255.224 212.466C255.224 212.466 254.28 209.705 250.888 210.419C247.496 211.133 248.368 215.909 248.464 219.2C248.548 222.502 249.508 226.508 252.334 226.418C255.159 226.339 254.935 220.505 254.449 215.432C254.449 215.432 254.539 223.521 257.582 223.526" fill="#F0C298"/>
<path d="M253.772 223.81C252.568 226.019 251.61 225.423 249.406 223.81C249.406 225.993 252.316 228.903 253.772 226.72C253.772 228.176 257.41 228.903 257.41 225.993C257.41 225.993 258.138 227.448 261.049 230.359C263.959 233.27 266.142 236.18 266.142 236.18C266.142 236.18 266.87 235.453 265.415 232.542C263.959 229.631 256.682 223.082 256.682 223.082C255.944 225.269 255.284 225.346 253.772 223.81Z" fill="#E1B48B"/>
<path d="M258.137 223.807C261.047 221.624 271.598 226.141 273.418 225.991C273.418 225.991 261.047 214.891 257.409 217.603C253.771 220.314 258.137 223.807 258.137 223.807Z" fill="#E1B48B"/>
<path d="M275.562 227.667C272.242 228.001 267.086 222.759 263.658 219.628C260.229 216.498 255.072 218.924 256.894 222.583C258.716 226.253 266.467 231.246 266.815 235.671" fill="#F0C298"/>
<path d="M261.643 210.338C262.164 213.916 261.494 218.397 261.494 218.397L261.643 210.338Z" fill="#F0C298"/>
<path d="M261.646 218.086C262.035 218.081 262.378 217.795 262.438 217.394C262.468 217.209 262.976 213.873 262.443 210.22C262.383 209.776 261.957 209.468 261.525 209.538C261.081 209.598 260.773 210.013 260.843 210.456C261.341 213.883 260.843 217.11 260.843 217.154C260.773 217.599 261.081 218.006 261.526 218.077C261.559 218.076 261.602 218.086 261.646 218.086Z" fill="#E1B48B"/>
<path d="M264.534 243.3C268.993 241.07 270.665 239.955 275.682 237.469C257.288 258.907 260.103 277.214 250.599 286.219C259.836 264.448 263.419 255.562 264.534 243.3Z" fill="#56B5C5"/>
<path d="M387.347 121.845C380.751 121.476 358.972 122.672 345.276 133.741C345.276 133.741 339.294 133.908 335.605 135.563C335.605 135.563 315.704 131.393 297.547 140.516C297.547 140.516 293.276 140.907 292.404 141.097V146.24C292.404 146.24 296.775 147.794 297.838 151.965C298.911 156.135 301.125 169.663 317.627 168.69C334.129 167.718 339.06 152.624 338.031 143.803C338.031 143.803 338.344 140.549 341.24 140.169C344.135 139.789 345.142 141.679 345.712 143.255C346.282 144.831 354.142 160.003 366.865 158.237C379.577 156.47 386.621 150.869 386.319 139.096C386.129 131.795 386.699 128.832 386.699 128.273L388.275 127.457L387.347 121.845Z" fill="black"/>
<path d="M332.091 138.74C334.651 141.188 336.06 151.34 332.494 158.149C328.927 164.958 315.88 168.535 308.344 164.522C300.809 160.508 299.825 149.484 300.495 146.298C301.166 143.111 302.519 139.031 317.478 137.331C325.987 136.37 332.091 138.74 332.091 138.74Z" fill="#202134"/>
<path d="M348.74 136.268C349.176 142.104 353.324 155.532 366.617 155.275C379.911 155.017 382.93 146.241 383.679 142.73C384.428 139.22 383.556 129.057 379.095 127.044C374.634 125.032 367.031 126.161 359.138 128.8C351.244 131.438 348.74 136.268 348.74 136.268Z" fill="#202134"/>
<path d="M361.74 127.995L378.354 151.608C378.354 151.608 379.494 150.646 379.975 150.098C381.104 148.824 381.238 148.5 381.238 148.5L365.194 127.078L361.74 127.995Z" fill="#CFEAF9"/>
<path d="M373.292 126.027L383.924 139.354C383.924 139.354 384.114 141.546 383.444 143.849C383.108 145.023 382.381 146.566 382.381 146.566L366.349 126.844C366.349 126.844 368.697 126.318 370.173 126.184C371.782 126.027 373.292 126.027 373.292 126.027Z" fill="#CFEAF9"/>
<path d="M318.823 137.21L332.944 157.245C332.944 157.245 333.682 155.49 334.151 153.399C334.532 151.711 334.655 149.732 334.632 148.804L325.867 137.367L322.759 137.109L318.823 137.21Z" fill="#CFEAF9"/>
<path d="M312.622 138.046L329.885 161.357C329.885 161.357 330.813 160.485 331.092 160.16C331.361 159.859 332.076 158.852 332.076 158.852L316.468 137.453L312.622 138.046Z" fill="#CFEAF9"/>
<path d="M360.097 219.891C356.286 225.354 347.735 235.482 342.622 237.431C342.622 237.431 332.567 233.924 325.562 220.378L321.007 223.597C321.007 223.597 325.46 239.188 343.501 245.227C343.501 245.227 358.044 237.008 365.979 222.75L360.097 219.891Z" fill="white"/>
<path d="M369.93 192.585C366.985 203.786 361.681 214.516 350.558 224.274C348.713 225.896 348.776 228.776 350.704 230.298L364.242 241.007C366.098 242.472 368.853 241.746 369.721 239.554C373.982 228.76 383.519 200.98 373.131 191.632C372.049 190.665 370.297 191.182 369.93 192.585Z" fill="white"/>
<path d="M320.884 192.945C322.033 204.362 325.799 215.821 335.988 227.567C337.676 229.519 337.092 232.282 334.749 233.343L318.292 240.816C316.036 241.838 313.21 240.558 312.671 238.264C310.037 226.962 304.789 198.178 317.619 191.354C318.954 190.649 320.743 191.516 320.884 192.945Z" fill="white"/>
<path d="M124.569 164.736L165.862 178.396L185.174 121.128L144.364 107.24L143.922 107.489L124.569 164.736Z" fill="#5D2D2D"/>
<path d="M170.969 180.09L212.263 193.75L212.746 193.522L231.574 136.482L190.805 122.615L190.363 122.864L170.969 180.09Z" fill="#5D2D2D"/>
<path d="M232.065 136.252L191.934 122.969L172.572 180.185L212.704 193.468L232.065 136.252Z" fill="#785C52"/>
<path d="M184.495 120.556L144.363 107.273L125.002 164.49L165.134 177.773L184.495 120.556Z" fill="#492014"/>
<path d="M152.273 106.447L133.636 161.512C133.636 161.512 132.502 163.796 127.927 164.082L146.387 109.457C146.409 109.415 149.661 109.772 152.273 106.447Z" fill="#CABEAE"/>
<path d="M165.085 177.779C165.085 177.779 165.654 179.191 168.457 180.113C171.259 181.035 172.607 180.245 172.607 180.245L191.959 122.999C191.959 122.999 190.573 123.662 187.875 122.741C185.154 121.861 184.501 120.511 184.501 120.511L165.085 177.779Z" fill="#5D2D2D"/>
<path d="M165.196 177.364C165.196 177.364 165.871 178.672 168.674 179.594C171.476 180.516 172.563 180.229 172.563 180.229L192.176 122.479C192.176 122.479 190.79 123.143 188.091 122.221C185.371 121.342 184.718 119.992 184.718 119.992L165.196 177.364Z" fill="#492014"/>
<path d="M169.364 177.373C169.364 177.373 167.853 178.366 166.062 177.703C164.271 177.039 136.615 164.498 127.946 164.042C132.152 163.565 133.655 161.472 133.655 161.472C133.655 161.472 134.336 160.762 141.363 163.078C159.082 168.975 169.364 177.373 169.364 177.373Z" fill="#B8A892"/>
<path d="M133.633 161.517C133.633 161.517 147.523 163.064 169.363 177.376L187.955 122.122C187.955 122.122 174.941 107.524 152.269 106.452L133.633 161.517Z" fill="white"/>
<path d="M208.754 187.67C208.754 187.67 208.704 189.772 210.816 190.921L229.317 136.318C229.317 136.318 227.592 135.529 227.391 132.605L208.754 187.67Z" fill="#CABEAE"/>
<path d="M169.359 177.379C169.359 177.379 169.422 178.549 172.761 179.643C176.14 180.758 202.105 186.624 210.808 190.928C208.894 189.296 208.746 187.677 208.746 187.677C208.746 187.677 197.378 178.886 169.359 177.379Z" fill="#B09E87"/>
<path d="M208.747 187.675C208.747 187.675 195.552 178.893 169.36 177.377L187.952 122.123C187.952 122.123 208.639 119.958 227.383 132.61L208.747 187.675Z" fill="#F2F2F2"/>
<path d="M188.76 129.262C188.76 129.262 196.443 128.408 205.232 130.841C214.021 133.273 220.44 137.562 220.44 137.562L220.663 136.933C220.663 136.933 214.309 132.518 205.31 130.189C196.311 127.86 188.901 128.59 188.901 128.59L188.76 129.262Z" fill="#CCCCCC"/>
<path d="M188.047 131.44C188.047 131.44 195.73 130.586 204.519 133.019C213.308 135.451 219.727 139.74 219.727 139.74L219.95 139.11C219.95 139.11 213.596 134.696 204.597 132.367C195.598 130.038 188.229 130.789 188.229 130.789L188.047 131.44Z" fill="#CCCCCC"/>
<path d="M187.352 133.578C187.352 133.578 195.035 132.724 203.824 135.157C212.613 137.59 219.032 141.878 219.032 141.878L219.255 141.249C219.255 141.249 212.9 136.835 203.901 134.506C194.902 132.177 187.493 132.907 187.493 132.907L187.352 133.578Z" fill="#CCCCCC"/>
<path d="M186.635 135.762C186.635 135.762 194.318 134.908 203.107 137.341C211.896 139.773 218.315 144.062 218.315 144.062L218.538 143.433C218.538 143.433 212.184 139.018 203.185 136.689C194.186 134.36 186.776 135.09 186.776 135.09L186.635 135.762Z" fill="#CCCCCC"/>
<path d="M185.94 137.906C185.94 137.906 193.623 137.052 202.412 139.485C211.201 141.918 217.62 146.206 217.62 146.206L217.843 145.577C217.843 145.577 211.488 141.163 202.489 138.834C193.49 136.505 186.08 137.235 186.08 137.235L185.94 137.906Z" fill="#CCCCCC"/>
<path d="M185.221 140.088C185.221 140.088 192.904 139.234 201.693 141.667C210.482 144.1 216.901 148.388 216.901 148.388L217.124 147.759C217.124 147.759 210.77 143.345 201.771 141.016C192.771 138.687 185.403 139.438 185.403 139.438L185.221 140.088Z" fill="#CCCCCC"/>
<path d="M207.614 145.318C205.681 144.527 203.518 143.777 201.165 143.194C192.166 140.865 184.756 141.595 184.756 141.595L184.533 142.224C184.533 142.224 192.216 141.37 201.005 143.803C203.315 144.47 205.437 145.198 207.37 145.989C207.416 145.8 207.506 145.527 207.614 145.318Z" fill="#CCCCCC"/>
<path d="M183.815 144.403C183.815 144.403 191.498 143.548 200.287 145.981C209.076 148.414 215.495 152.702 215.495 152.702L215.718 152.073C215.718 152.073 209.363 147.659 200.364 145.33C191.365 143.001 183.955 143.731 183.955 143.731L183.815 144.403Z" fill="#CCCCCC"/>
<path d="M183.157 146.571C183.157 146.571 190.84 145.716 199.628 148.149C208.417 150.582 214.837 154.87 214.837 154.87L215.059 154.241C215.059 154.241 208.705 149.827 199.706 147.498C190.707 145.169 183.297 145.899 183.297 145.899L183.157 146.571Z" fill="#CCCCCC"/>
<path d="M182.45 148.75C182.45 148.75 190.132 147.896 198.921 150.329C207.71 152.762 214.13 157.05 214.13 157.05L214.352 156.421C214.352 156.421 207.998 152.007 198.999 149.678C190 147.349 182.59 148.078 182.59 148.078L182.45 148.75Z" fill="#CCCCCC"/>
<path d="M181.752 150.891C181.752 150.891 189.435 150.037 198.224 152.47C207.013 154.902 213.433 159.191 213.433 159.191L213.655 158.561C213.655 158.561 207.301 154.147 198.302 151.818C189.303 149.489 181.893 150.219 181.893 150.219L181.752 150.891Z" fill="#CCCCCC"/>
<path d="M208.491 158.174C205.783 156.769 202.042 155.147 197.624 154.025C188.625 151.696 181.215 152.426 181.215 152.426L180.993 153.055C180.993 153.055 188.676 152.201 197.465 154.634C201.735 155.839 205.435 157.439 208.124 158.781L208.491 158.174Z" fill="#CCCCCC"/>
<path d="M180.342 155.213C180.342 155.213 188.025 154.359 196.814 156.792C205.603 159.225 212.022 163.513 212.022 163.513L212.245 162.884C212.245 162.884 205.891 158.47 196.892 156.141C187.893 153.812 180.524 154.563 180.524 154.563L180.342 155.213Z" fill="#CCCCCC"/>
<path d="M179.626 157.393C179.626 157.393 187.308 156.539 196.097 158.972C204.886 161.404 211.306 165.693 211.306 165.693L211.528 165.064C211.528 165.064 205.174 160.649 196.175 158.32C187.176 155.991 179.807 156.742 179.807 156.742L179.626 157.393Z" fill="#CCCCCC"/>
<path d="M178.926 159.534C178.926 159.534 186.609 158.68 195.398 161.112C204.187 163.545 210.606 167.833 210.606 167.833L210.829 167.204C210.829 167.204 204.475 162.79 195.476 160.461C186.477 158.132 179.108 158.883 179.108 158.883L178.926 159.534Z" fill="#CCCCCC"/>
<path d="M178.217 161.715C178.217 161.715 185.9 160.861 194.689 163.294C203.478 165.726 209.897 170.015 209.897 170.015L210.12 169.386C210.12 169.386 203.766 164.972 194.767 162.643C185.768 160.314 178.358 161.043 178.358 161.043L178.217 161.715Z" fill="#CCCCCC"/>
<path d="M196.834 165.58C195.989 165.302 195.081 165.043 194.174 164.785C185.175 162.456 177.765 163.186 177.765 163.186L177.542 163.815C177.542 163.815 185.225 162.961 194.014 165.394C194.963 165.673 195.87 165.932 196.756 166.232C196.78 166.085 196.807 165.833 196.834 165.58Z" fill="#CCCCCC"/>
<path d="M176.848 166.059C176.848 166.059 184.531 165.205 193.32 167.637C202.109 170.07 208.528 174.359 208.528 174.359L208.751 173.729C208.751 173.729 202.397 169.315 193.398 166.986C184.398 164.657 176.989 165.387 176.989 165.387L176.848 166.059Z" fill="#CCCCCC"/>
<path d="M176.145 168.202C176.145 168.202 183.828 167.348 192.617 169.78C201.406 172.213 207.825 176.501 207.825 176.501L208.048 175.872C208.048 175.872 201.693 171.458 192.694 169.129C183.695 166.8 176.326 167.551 176.326 167.551L176.145 168.202Z" fill="#CCCCCC"/>
<path d="M175.432 170.389C175.432 170.389 183.115 169.535 191.904 171.968C200.693 174.401 207.112 178.689 207.112 178.689L207.335 178.06C207.335 178.06 200.981 173.646 191.981 171.317C182.982 168.988 175.614 169.739 175.614 169.739L175.432 170.389Z" fill="#CCCCCC"/>
<path d="M178.863 137.489C178.863 137.489 167.67 125.139 149.329 124.452L149.15 124.997C149.15 124.997 156.775 124.858 165.505 128.909C173.373 132.513 178.684 138.035 178.684 138.035L178.863 137.489Z" fill="#CCCCCC"/>
<path d="M177.343 122.762C173.69 120.068 168.076 116.836 160.972 115.171L160.546 116.493C163.003 117.076 165.912 117.894 168.891 119.28C172.033 120.751 174.673 122.387 176.838 123.936L177.343 122.762Z" fill="#CCCCCC"/>
<path d="M176.16 126.449C172.506 123.755 166.892 120.523 159.788 118.858L159.362 120.18C161.82 120.764 164.729 121.581 167.707 122.967C170.85 124.438 173.49 126.074 175.654 127.623L176.16 126.449Z" fill="#CCCCCC"/>
<path d="M178.148 139.571C178.148 139.571 166.956 127.221 148.615 126.534L148.436 127.08C148.436 127.08 156.06 126.94 164.79 130.991C172.659 134.595 177.969 140.117 177.969 140.117L178.148 139.571Z" fill="#CCCCCC"/>
<path d="M177.504 141.618C177.504 141.618 166.311 129.268 147.97 128.581L147.791 129.126C147.791 129.126 155.415 128.987 164.146 133.038C172.014 136.642 177.325 142.164 177.325 142.164L177.504 141.618Z" fill="#CCCCCC"/>
<path d="M171.795 139.361C166.814 135.712 158.348 131.053 147.269 130.624L147.09 131.169C147.09 131.169 154.714 131.03 163.444 135.081C166.587 136.552 169.37 138.315 171.513 139.906L171.795 139.361Z" fill="#CCCCCC"/>
<path d="M176.091 145.735C176.091 145.735 164.899 133.385 146.558 132.698L146.379 133.244C146.379 133.244 154.003 133.104 162.733 137.155C170.602 140.759 175.912 146.281 175.912 146.281L176.091 145.735Z" fill="#CCCCCC"/>
<path d="M175.443 147.79C175.443 147.79 164.25 135.44 145.91 134.753L145.731 135.298C145.731 135.298 153.355 135.159 162.085 139.21C169.953 142.814 175.264 148.335 175.264 148.335L175.443 147.79Z" fill="#CCCCCC"/>
<path d="M174.732 149.86C174.732 149.86 163.539 137.51 145.199 136.823L145.02 137.369C145.02 137.369 152.644 137.229 161.374 141.28C169.243 144.884 174.553 150.406 174.553 150.406L174.732 149.86Z" fill="#CCCCCC"/>
<path d="M174.047 151.895C174.047 151.895 162.854 139.545 144.513 138.858L144.334 139.404C144.334 139.404 151.958 139.264 160.689 143.315C168.557 146.919 173.868 152.441 173.868 152.441L174.047 151.895Z" fill="#CCCCCC"/>
<path d="M173.369 153.997C173.369 153.997 162.176 141.647 143.835 140.96L143.656 141.505C143.656 141.505 151.281 141.366 160.011 145.417C167.879 149.021 173.19 154.542 173.19 154.542L173.369 153.997Z" fill="#CCCCCC"/>
<path d="M172.679 156.028C172.679 156.028 161.487 143.678 143.146 142.991L142.967 143.537C142.967 143.537 150.591 143.397 159.321 147.448C167.168 151.094 172.5 156.574 172.5 156.574L172.679 156.028Z" fill="#CCCCCC"/>
<path d="M166.207 153.248C161.161 149.725 152.955 145.468 142.436 145.063L142.257 145.608C142.257 145.608 149.882 145.469 158.612 149.52C161.426 150.82 163.861 152.35 165.884 153.772L166.207 153.248Z" fill="#CCCCCC"/>
<path d="M171.318 160.157C171.318 160.157 160.125 147.807 141.785 147.12L141.606 147.665C141.606 147.665 149.23 147.526 157.96 151.577C165.828 155.181 171.139 160.703 171.139 160.703L171.318 160.157Z" fill="#CCCCCC"/>
<path d="M170.623 162.196C170.623 162.196 159.43 149.846 141.089 149.159L140.91 149.705C140.91 149.705 148.535 149.565 157.265 153.616C165.133 157.22 170.444 162.742 170.444 162.742L170.623 162.196Z" fill="#CCCCCC"/>
<path d="M169.953 164.29C169.953 164.29 158.76 151.94 140.419 151.253L140.24 151.798C140.24 151.798 147.865 151.659 156.595 155.71C164.441 159.356 169.774 164.835 169.774 164.835L169.953 164.29Z" fill="#CCCCCC"/>
<path d="M169.168 166.501C169.168 166.501 157.975 154.151 139.634 153.464L139.455 154.009C139.455 154.009 147.08 153.87 155.81 157.921C163.678 161.525 168.989 167.046 168.989 167.046L169.168 166.501Z" fill="#CCCCCC"/>
<path d="M107.65 256.098L152.082 238.438L127.856 176.578L83.6691 193.705L83.4733 194.227L107.65 256.098Z" fill="#5D2D2D"/>
<path d="M157.583 236.261L202.015 218.602L202.261 218.069L177.789 156.741L133.652 173.857L133.456 174.379L157.583 236.261Z" fill="#5D2D2D"/>
<path d="M178.041 156.198L134.854 173.355L159.001 235.207L202.189 218.05L178.041 156.198Z" fill="#785C52"/>
<path d="M126.881 176.577L83.6934 193.734L107.841 255.586L151.029 238.429L126.881 176.577Z" fill="#492014"/>
<path d="M89.7716 187.454L113.008 246.983C113.008 246.983 113.669 249.707 110.018 253.178L86.9435 194.145C86.9321 194.094 89.9234 192.099 89.7716 187.454Z" fill="#CABEAE"/>
<path d="M150.993 238.469C150.993 238.469 152.47 239.256 155.483 238.053C158.495 236.851 159.071 235.234 159.071 235.234L134.894 173.362C134.894 173.362 134.196 174.9 131.272 176.03C128.359 177.211 126.855 176.536 126.855 176.536L150.993 238.469Z" fill="#5D2D2D"/>
<path d="M150.794 238.042C150.794 238.042 152.287 238.666 155.299 237.464C158.311 236.261 159.023 235.252 159.023 235.252L134.711 172.773C134.711 172.773 134.013 174.31 131.088 175.44C128.176 176.621 126.671 175.946 126.671 175.946L150.794 238.042Z" fill="#492014"/>
<path d="M154.311 235.107C154.311 235.107 153.74 237.01 151.763 237.716C149.786 238.422 117.629 247.393 110.006 253.131C113.211 249.759 112.997 246.936 112.997 246.936C112.997 246.936 113.068 245.856 120.623 242.844C139.715 235.296 154.311 235.107 154.311 235.107Z" fill="#B8A892"/>
<path d="M113.01 246.991C113.01 246.991 125.801 238.484 154.313 235.111L130.905 175.455C130.905 175.455 109.624 172.354 89.7732 187.462L113.01 246.991Z" fill="white"/>
<path d="M194.762 215.958C194.762 215.958 196.207 217.763 198.798 217.239L175.773 158.195C175.773 158.195 173.762 158.749 171.525 156.43L194.762 215.958Z" fill="#CABEAE"/>
<path d="M154.311 235.114C154.311 235.114 155.192 236.055 158.777 234.618C162.411 233.171 188.424 219.773 198.796 217.25C196.032 217.228 194.761 215.969 194.761 215.969C194.761 215.969 178.973 216.595 154.311 235.114Z" fill="#B09E87"/>
<path d="M194.758 215.966C194.758 215.966 177.436 217.89 154.308 235.111L130.9 175.455C130.9 175.455 146.791 159.022 171.521 156.437L194.758 215.966Z" fill="#F2F2F2"/>
<path d="M136.63 180.898C136.63 180.898 142.496 174.753 151.618 170.595C160.739 166.436 169.177 165.514 169.177 165.514L168.92 164.827C168.92 164.827 160.448 165.597 151.222 169.992C141.997 174.386 136.273 180.233 136.273 180.233L136.63 180.898Z" fill="#CCCCCC"/>
<path d="M137.571 183.237C137.571 183.237 143.437 177.093 152.558 172.934C161.68 168.776 170.118 167.853 170.118 167.853L169.86 167.166C169.86 167.166 161.388 167.937 152.163 172.331C142.938 176.725 137.263 182.561 137.263 182.561L137.571 183.237Z" fill="#CCCCCC"/>
<path d="M138.497 185.527C138.497 185.527 144.363 179.382 153.485 175.224C162.606 171.065 171.044 170.143 171.044 170.143L170.787 169.456C170.787 169.456 162.315 170.226 153.09 174.621C143.865 179.015 138.14 184.862 138.14 184.862L138.497 185.527Z" fill="#CCCCCC"/>
<path d="M139.437 187.871C139.437 187.871 145.303 181.726 154.424 177.568C163.546 173.409 171.984 172.486 171.984 172.486L171.726 171.8C171.726 171.8 163.254 172.57 154.029 176.964C144.804 181.359 139.08 187.206 139.08 187.206L139.437 187.871Z" fill="#CCCCCC"/>
<path d="M140.366 190.168C140.366 190.168 146.232 184.023 155.354 179.864C164.475 175.706 172.913 174.783 172.913 174.783L172.656 174.096C172.656 174.096 164.184 174.867 154.959 179.261C145.734 183.655 140.009 189.503 140.009 189.503L140.366 190.168Z" fill="#CCCCCC"/>
<path d="M141.305 192.515C141.305 192.515 147.171 186.37 156.293 182.211C165.414 178.053 173.852 177.13 173.852 177.13L173.595 176.443C173.595 176.443 165.123 177.214 155.897 181.608C146.672 186.002 140.998 191.839 140.998 191.839L141.305 192.515Z" fill="#CCCCCC"/>
<path d="M163.86 181.104C161.673 181.804 159.322 182.7 156.928 183.871C147.702 188.265 141.978 194.112 141.978 194.112L142.236 194.799C142.236 194.799 148.102 188.655 157.223 184.496C159.64 183.426 161.942 182.541 164.129 181.841C164.034 181.65 163.917 181.357 163.86 181.104Z" fill="#CCCCCC"/>
<path d="M143.171 197.14C143.171 197.14 149.037 190.996 158.159 186.837C167.28 182.679 175.718 181.756 175.718 181.756L175.461 181.069C175.461 181.069 166.989 181.84 157.763 186.234C148.538 190.628 142.814 196.476 142.814 196.476L143.171 197.14Z" fill="#CCCCCC"/>
<path d="M144.151 199.429C144.151 199.429 150.017 193.285 159.139 189.126C168.261 184.968 176.699 184.045 176.699 184.045L176.441 183.358C176.441 183.358 167.969 184.129 158.744 188.523C149.519 192.917 143.795 198.765 143.795 198.765L144.151 199.429Z" fill="#CCCCCC"/>
<path d="M145.093 201.761C145.093 201.761 150.959 195.617 160.08 191.458C169.202 187.3 177.64 186.377 177.64 186.377L177.382 185.69C177.382 185.69 168.91 186.461 159.685 190.855C150.46 195.249 144.736 201.097 144.736 201.097L145.093 201.761Z" fill="#CCCCCC"/>
<path d="M146.022 204.058C146.022 204.058 151.889 197.914 161.01 193.755C170.132 189.597 178.57 188.674 178.57 188.674L178.312 187.987C178.312 187.987 169.84 188.758 160.615 193.152C151.39 197.546 145.666 203.394 145.666 203.394L146.022 204.058Z" fill="#CCCCCC"/>
<path d="M173.688 191.307C170.414 192.036 166.117 193.312 161.603 195.487C152.378 199.882 146.654 205.729 146.654 205.729L146.911 206.416C146.911 206.416 152.778 200.271 161.899 196.113C166.347 194.112 170.595 192.846 173.808 192.078L173.688 191.307Z" fill="#CCCCCC"/>
<path d="M147.889 208.694C147.889 208.694 153.755 202.55 162.877 198.391C171.998 194.233 180.436 193.31 180.436 193.31L180.179 192.623C180.179 192.623 171.707 193.394 162.481 197.788C153.256 202.182 147.582 208.018 147.582 208.018L147.889 208.694Z" fill="#CCCCCC"/>
<path d="M148.826 211.038C148.826 211.038 154.692 204.893 163.814 200.735C172.936 196.576 181.374 195.654 181.374 195.654L181.116 194.967C181.116 194.967 172.644 195.737 163.419 200.132C154.194 204.526 148.519 210.362 148.519 210.362L148.826 211.038Z" fill="#CCCCCC"/>
<path d="M149.752 213.335C149.752 213.335 155.618 207.19 164.74 203.032C173.861 198.873 182.299 197.951 182.299 197.951L182.042 197.264C182.042 197.264 173.57 198.034 164.345 202.429C155.12 206.823 149.445 212.659 149.445 212.659L149.752 213.335Z" fill="#CCCCCC"/>
<path d="M150.696 215.672C150.696 215.672 156.562 209.527 165.684 205.368C174.805 201.21 183.244 200.287 183.244 200.287L182.986 199.6C182.986 199.6 174.514 200.371 165.289 204.765C156.064 209.159 150.34 215.007 150.34 215.007L150.696 215.672Z" fill="#CCCCCC"/>
<path d="M169.106 205.777C168.197 206.139 167.25 206.562 166.304 206.986C157.078 211.38 151.354 217.227 151.354 217.227L151.612 217.914C151.612 217.914 157.478 211.769 166.599 207.611C167.596 207.176 168.543 206.753 169.501 206.38C169.417 206.239 169.262 206.008 169.106 205.777Z" fill="#CCCCCC"/>
<path d="M152.614 220.297C152.614 220.297 158.48 214.152 167.602 209.993C176.723 205.835 185.161 204.912 185.161 204.912L184.904 204.225C184.904 204.225 176.432 204.996 167.207 209.39C157.982 213.784 152.258 219.632 152.258 219.632L152.614 220.297Z" fill="#CCCCCC"/>
<path d="M153.537 222.597C153.537 222.597 159.403 216.452 168.525 212.293C177.646 208.135 186.085 207.212 186.085 207.212L185.827 206.525C185.827 206.525 177.355 207.296 168.13 211.69C158.905 216.084 153.23 221.921 153.23 221.921L153.537 222.597Z" fill="#CCCCCC"/>
<path d="M154.483 224.941C154.483 224.941 160.349 218.796 169.47 214.637C178.592 210.479 187.03 209.556 187.03 209.556L186.772 208.869C186.772 208.869 178.3 209.64 169.075 214.034C159.85 218.428 154.175 224.265 154.175 224.265L154.483 224.941Z" fill="#CCCCCC"/>
<path d="M134.112 194.816C134.112 194.816 115.954 192.321 100.023 204.696L100.258 205.281C100.258 205.281 106.58 199.779 116.796 197.025C125.971 194.503 134.347 195.402 134.347 195.402L134.112 194.816Z" fill="#CCCCCC"/>
<path d="M122.419 183.485C117.437 183.797 110.425 185.04 103.265 188.655L103.841 190.069C106.323 188.825 109.351 187.459 112.839 186.523C116.525 185.542 119.905 185.055 122.823 184.83L122.419 183.485Z" fill="#CCCCCC"/>
<path d="M124.03 187.426C119.049 187.738 112.036 188.981 104.876 192.597L105.452 194.01C107.934 192.766 110.962 191.401 114.45 190.464C118.136 189.483 121.517 188.996 124.435 188.772L124.03 187.426Z" fill="#CCCCCC"/>
<path d="M134.981 197.07C134.981 197.07 116.823 194.575 100.892 206.95L101.127 207.535C101.127 207.535 107.449 202.033 117.665 199.279C126.84 196.757 135.216 197.656 135.216 197.656L134.981 197.07Z" fill="#CCCCCC"/>
<path d="M135.885 199.25C135.885 199.25 117.728 196.755 101.797 209.129L102.032 209.715C102.032 209.715 108.354 204.213 118.57 201.459C127.744 198.937 136.12 199.836 136.12 199.836L135.885 199.25Z" fill="#CCCCCC"/>
<path d="M129.484 201.382C122.71 201.828 112.285 203.884 102.652 211.347L102.887 211.932C102.887 211.932 109.209 206.43 119.425 203.676C123.112 202.695 126.701 202.215 129.631 202.041L129.484 201.382Z" fill="#CCCCCC"/>
<path d="M137.606 203.715C137.606 203.715 119.448 201.22 103.517 213.594L103.752 214.18C103.752 214.18 110.074 208.678 120.29 205.924C129.465 203.402 137.841 204.3 137.841 204.3L137.606 203.715Z" fill="#CCCCCC"/>
<path d="M138.514 205.902C138.514 205.902 120.357 203.407 104.426 215.782L104.66 216.367C104.66 216.367 110.982 210.865 121.199 208.111C130.373 205.589 138.749 206.488 138.749 206.488L138.514 205.902Z" fill="#CCCCCC"/>
<path d="M139.381 208.148C139.381 208.148 121.224 205.653 105.293 218.028L105.528 218.613C105.528 218.613 111.85 213.111 122.066 210.357C131.24 207.835 139.616 208.734 139.616 208.734L139.381 208.148Z" fill="#CCCCCC"/>
<path d="M140.241 210.348C140.241 210.348 122.083 207.853 106.152 220.227L106.387 220.813C106.387 220.813 112.709 215.311 122.925 212.556C132.1 210.034 140.476 210.933 140.476 210.933L140.241 210.348Z" fill="#CCCCCC"/>
<path d="M141.155 212.594C141.155 212.594 122.997 210.099 107.066 222.473L107.301 223.059C107.301 223.059 113.623 217.557 123.839 214.803C133.014 212.28 141.39 213.179 141.39 213.179L141.155 212.594Z" fill="#CCCCCC"/>
<path d="M142.012 214.793C142.012 214.793 123.855 212.298 107.924 224.672L108.158 225.258C108.158 225.258 114.481 219.756 124.697 217.002C133.882 214.53 142.247 215.379 142.247 215.379L142.012 214.793Z" fill="#CCCCCC"/>
<path d="M134.594 217.019C127.853 217.616 117.932 219.826 108.788 226.914L109.023 227.499C109.023 227.499 115.345 221.997 125.561 219.243C128.851 218.351 131.983 217.919 134.691 217.688L134.594 217.019Z" fill="#CCCCCC"/>
<path d="M143.782 219.227C143.782 219.227 125.624 216.731 109.693 229.106L109.928 229.692C109.928 229.692 116.25 224.189 126.466 221.435C135.641 218.913 144.017 219.812 144.017 219.812L143.782 219.227Z" fill="#CCCCCC"/>
<path d="M144.639 221.437C144.639 221.437 126.482 218.942 110.551 231.317L110.785 231.903C110.785 231.903 117.107 226.4 127.324 223.646C136.498 221.124 144.874 222.023 144.874 222.023L144.639 221.437Z" fill="#CCCCCC"/>
<path d="M145.557 223.676C145.557 223.676 127.4 221.181 111.468 233.555L111.703 234.141C111.703 234.141 118.025 228.639 128.242 225.885C137.427 223.413 145.792 224.261 145.792 224.261L145.557 223.676Z" fill="#CCCCCC"/>
<path d="M146.456 226.09C146.456 226.09 128.298 223.595 112.367 235.969L112.602 236.555C112.602 236.555 118.924 231.053 129.14 228.299C138.314 225.777 146.691 226.675 146.691 226.675L146.456 226.09Z" fill="#CCCCCC"/>
</g>
<defs>
<linearGradient id="paint0_linear_29865_11320" x1="128" y1="-53" x2="310.986" y2="447.329" gradientUnits="userSpaceOnUse">
<stop offset="0.352557" stop-color="#BCE6FF"/>
<stop offset="1" stop-color="#E9F7FF"/>
</linearGradient>
<clipPath id="clip0_29865_11320">
<rect width="540" height="333" fill="white"/>
</clipPath>
</defs>
</svg>
